<?xml version="1.0" standalone="no"?>
<!DOCTYPE svg PUBLIC "-//W3C//DTD SVG 20010904//EN"
 "http://www.w3.org/TR/2001/REC-SVG-20010904/DTD/svg10.dtd">
<svg version="1.0" xmlns="http://www.w3.org/2000/svg"
 width="256.000000pt" height="256.000000pt" viewBox="0 0 256.000000 256.000000"
 preserveAspectRatio="xMidYMid meet">
<metadata>
Created by potrace 1.14, written by Peter Selinger 2001-2017
</metadata>
<g transform="translate(0.000000,256.000000) scale(0.100000,-0.100000)"
fill="#000000" stroke="none">
<path d="M575 2278 c-25 -14 -35 -29 -28 -42 3 -5 1 -6 -5 -2 -29 18 -32 -42
-36 -676 -2 -537 4 -1020 12 -917 1 15 5 41 9 60 5 28 7 30 14 14 7 -17 8 -18
8 -2 1 13 9 17 34 16 25 -1 27 -3 8 -6 l-23 -5 27 -14 c15 -8 36 -14 46 -14
12 0 21 -10 25 -25 3 -14 12 -25 20 -25 8 0 14 -4 14 -9 0 -5 7 -12 16 -15 10
-4 13 -2 8 7 -4 6 7 -3 25 -21 36 -38 36 -40 16 -106 -8 -26 -13 -51 -11 -55
3 -4 44 -8 93 -9 48 -1 115 -7 148 -13 32 -6 95 -10 140 -9 82 1 116 1 138 0
16 -1 95 8 133 15 18 3 38 12 44 20 7 9 21 13 31 10 9 -3 20 -1 24 5 3 5 16
10 28 10 13 0 32 7 44 15 12 8 33 16 47 17 13 1 24 7 23 13 -1 5 6 9 15 9 10
-1 15 2 12 7 -3 5 3 9 14 9 10 0 22 3 26 7 3 4 14 8 22 9 30 5 44 14 44 29 0
8 9 15 20 15 11 0 20 7 20 15 0 9 10 20 23 26 18 7 14 8 -18 4 -27 -3 -34 -2
-20 4 l20 9 -20 4 c-11 3 0 3 25 1 25 -1 39 0 33 3 -7 3 -13 10 -13 15 0 6 8
5 20 -1 13 -7 26 -8 38 -1 12 7 22 5 35 -7 14 -12 16 -12 12 -1 -4 8 -22 27
-41 43 -30 24 -36 26 -51 15 -13 -12 -104 -13 -512 -10 -558 4 -539 1 -572 77
-19 41 -20 66 -18 354 l2 310 118 177 c66 98 119 182 119 188 0 5 -12 -8 -26
-30 -13 -22 -29 -39 -35 -37 -6 1 -8 -2 -5 -7 3 -5 -1 -11 -9 -15 -19 -7 -19
-1 2 35 9 15 13 32 9 36 -5 4 -11 2 -13 -4 -8 -24 -25 -13 -19 11 4 15 0 28
-9 36 -8 7 -15 18 -15 25 0 7 -7 18 -15 25 -8 7 -15 19 -15 28 0 8 -11 30 -25
48 -14 18 -25 37 -25 42 0 6 -7 13 -15 16 -9 3 -23 22 -31 41 -8 19 -19 35
-24 35 -6 0 -10 6 -10 14 0 8 -18 34 -40 58 -22 23 -40 48 -40 53 -1 26 -17
37 -39 26 -13 -7 -21 -8 -21 -2 0 6 15 15 33 20 28 8 29 9 7 10 -14 0 -34 -5
-45 -11z m1331 -1585 c-8 -8 -36 5 -36 17 0 7 6 7 21 0 11 -7 18 -14 15 -17z
m-121 -3 c-3 -5 -12 -10 -18 -10 -7 0 -6 4 3 10 19 12 23 12 15 0z"/>
<path d="M1047 1553 c-14 -21 -44 -64 -66 -97 l-41 -59 0 -253 0 -254 411 0
c348 0 410 2 407 14 -5 25 -255 255 -284 262 -15 4 -45 2 -67 -3 -38 -10 -40
-10 -74 28 -41 45 -112 72 -181 69 -65 -3 -74 -2 -66 11 4 8 9 7 16 -2 5 -9 6
-4 2 14 -5 20 -1 34 12 48 18 20 18 21 -9 41 -16 11 -27 29 -27 42 0 30 -38
66 -49 47 -6 -10 -10 -9 -14 4 -4 9 -3 13 3 10 9 -6 11 -2 14 35 1 8 8 14 16
12 8 -2 12 0 7 4 -4 4 0 18 9 32 26 40 9 35 -19 -5z m-33 -245 c-3 -5 -12 -4
-20 3 -19 16 -18 18 6 12 11 -3 17 -9 14 -15z m24 -6 c-2 -5 10 -20 26 -34 23
-20 26 -26 14 -31 -18 -6 -63 47 -53 63 7 12 16 13 13 2z"/>
<path d="M1903 663 c-13 -2 -23 -9 -23 -14 0 -13 13 -11 36 6 10 8 17 14 14
13 -3 0 -15 -3 -27 -5z"/>
<path d="M2103 495 c0 -22 2 -30 4 -17 2 12 2 30 0 40 -3 9 -5 -1 -4 -23z"/>
<path d="M775 360 c-93 -3 147 -7 534 -8 387 -1 702 0 700 2 -7 7 -1050 11
-1234 6z"/>
</g>
</svg>
